<?xml version="1.0" encoding="iso-8859-1"?>
<!-- Uploaded to: SVG Repo, www.svgrepo.com, Generator: SVG Repo Mixer Tools -->
<svg version="1.1" id="Layer_1" xmlns="http://www.w3.org/2000/svg" xmlns:xlink="http://www.w3.org/1999/xlink" 
	 viewBox="0 0 512 512" xml:space="preserve">
<rect x="10.199" y="177.64" style="fill:#FFB33C;" width="491.602" height="274.124"/>
<g>
	<circle style="fill:#FFFFFF;" cx="365.131" cy="314.197" r="96.892"/>
	<rect x="64.255" y="177.64" style="fill:#FFFFFF;" width="74.454" height="41.517"/>
	<rect x="138.709" y="177.64" style="fill:#FFFFFF;" width="74.454" height="41.517"/>
	<circle style="fill:#FFFFFF;" cx="98.932" cy="364.173" r="37.737"/>
</g>
<path d="M10.199,167.445C4.566,167.445,0,172.011,0,177.644v274.124c0,5.633,4.566,10.199,10.199,10.199h491.602
	c5.633,0,10.199-4.566,10.199-10.199V177.644c0-5.633-4.566-10.199-10.199-10.199h-47.055L69.257,50.475
	c-5.392-1.635-11.086,1.409-12.721,6.799s1.409,11.086,6.799,12.721l321.159,97.449H10.199z M148.908,187.843h54.056v21.118h-54.056
	V187.843z M128.51,187.843v21.118H74.454v-21.118H128.51z M213.163,229.36c5.633,0,10.199-4.566,10.199-10.199v-31.318h268.239
	v253.726H20.398V187.843h33.657v31.318c0,5.633,4.566,10.199,10.199,10.199L213.163,229.36L213.163,229.36z"/>
<path d="M365.131,421.287c59.05,0,107.092-48.041,107.092-107.092s-48.041-107.092-107.092-107.092S258.04,255.145,258.04,314.196
	S306.081,421.287,365.131,421.287z M317.195,242.007c5.882-3.919,12.269-7.132,19.039-9.533v163.444
	c-6.77-2.401-13.156-5.615-19.039-9.533V242.007z M415.108,384.968c-5.855,4.147-12.239,7.586-19.039,10.194V233.229
	c6.799,2.607,13.184,6.047,19.039,10.194V384.968z M451.825,314.196c0,18.848-6.064,36.296-16.319,50.535v-101.07
	C445.76,277.9,451.825,295.348,451.825,314.196z M375.67,228.165v172.06c-3.458,0.421-6.97,0.664-10.539,0.664
	c-2.868,0-5.702-0.148-8.499-0.421V227.924c2.798-0.273,5.631-0.421,8.499-0.421C368.701,227.503,372.213,227.744,375.67,228.165z
	 M296.797,260.943v106.505c-11.487-14.707-18.359-33.187-18.359-53.253S285.309,275.651,296.797,260.943z"/>
<path d="M220.303,264.22h-5.1c-5.633,0-10.199,4.566-10.199,10.199c0,5.633,4.566,10.199,10.199,10.199h5.1
	c5.633,0,10.199-4.566,10.199-10.199C230.502,268.786,225.936,264.22,220.303,264.22z"/>
<path d="M180.526,264.22h-76.494v-7.139c0-5.633-4.566-10.199-10.199-10.199s-10.199,4.566-10.199,10.199v7.139H59.155
	c-5.633,0-10.199,4.566-10.199,10.199c0,5.633,4.566,10.199,10.199,10.199h121.371c5.633,0,10.199-4.566,10.199-10.199
	C190.725,268.786,186.159,264.22,180.526,264.22z"/>
<path d="M98.932,316.236c-26.432,0-47.936,21.504-47.936,47.936c0,26.432,21.504,47.936,47.936,47.936s47.936-21.504,47.936-47.936
	C146.869,337.74,125.365,316.236,98.932,316.236z M98.932,391.71c-15.185,0-27.538-12.353-27.538-27.538
	c0-15.185,12.353-27.538,27.538-27.538s27.538,12.353,27.538,27.538C126.47,379.356,114.117,391.71,98.932,391.71z"/>
</svg>